# Blender 4.2.1 LTS
# www.blender.org
o Plane
v -0.060381 0.000000 -0.000000
v 0.060381 0.000000 -0.000000
v 0.000000 1.000000 0.000000
v 0.147098 0.250000 -0.000000
v -0.147098 0.250000 -0.000000
v -0.151159 0.500000 0.000000
v -0.090226 0.750000 0.000000
v 0.151159 0.500000 0.000000
v 0.090226 0.750000 0.000000
vn -0.0000 -0.0000 1.0000
vt 0.699727 0.000000
vt 0.986569 0.250000
vt 0.013431 0.250000
vt 0.300273 0.000000
vt 0.798449 0.750000
vt 0.500000 1.000000
vt 0.201551 0.750000
vt 1.000000 0.500000
vt 0.000000 0.500000
s 0
f 2/1/1 4/2/1 5/3/1 1/4/1
f 9/5/1 3/6/1 7/7/1
f 8/8/1 9/5/1 7/7/1 6/9/1
f 4/2/1 8/8/1 6/9/1 5/3/1
